<svg width="189" height="46" viewBox="0 0 189 46" fill="none" xmlns="http://www.w3.org/2000/svg">
<path d="M18.8565 43.3003L22.0422 37.7936L26.6419 45.7468L32.4428 42.4041L24.3819 28.4689H19.7013L13.0555 39.9577L18.8565 43.3003Z" fill="white"/>
<path d="M3.07977 29.7219L9.45044 29.7223L4.84991 37.675L10.6506 41.0183L18.7107 27.0825L16.3704 23.0364L3.07953 23.0361L3.07977 29.7219Z" fill="white"/>
<path d="M6.97251 9.295L10.1575 14.8023L0.957273 14.8017L0.957031 21.4876L17.078 21.4872L19.4184 17.4411L12.7732 5.95183L6.97251 9.295Z" fill="white"/>
<path d="M26.6419 2.44639L23.4562 7.95319L18.8565 0L13.0555 3.34268L21.1165 17.278H25.7971L32.4428 5.78908L26.6419 2.44639Z" fill="white"/>
<path d="M42.4185 16.0248L36.0479 16.0245L40.6484 8.07175L34.8477 4.72859L26.7876 18.6642L29.1279 22.7104L42.4188 22.7107L42.4185 16.0248Z" fill="white"/>
<path d="M38.5258 36.4517L35.3409 30.9446L44.5411 30.945L44.5413 24.2592L28.4203 24.2597L26.08 28.3058L32.7251 39.795L38.5258 36.4517Z" fill="white"/>
<path d="M60.3584 4.82338L64.652 7.73915V17.1005H65.1695C66.0656 15.7455 67.2887 14.6376 68.7261 13.879C70.1636 13.1204 71.7691 12.7355 73.3946 12.7598C80.0163 12.7598 84.2583 17.5656 84.2583 24.2319V39.8896H79.9643V24.2319C79.9643 19.788 77.3261 16.6355 72.8258 16.6355C68.4288 16.6355 64.653 19.9947 64.653 24.6454V39.8899H60.3593L60.3584 4.82338Z" fill="white"/>
<path d="M87.3196 26.5059C87.3196 18.5476 93.1135 12.7598 101.184 12.7598C109.15 12.7598 114.892 18.5476 114.892 26.5572C114.892 27.0742 114.892 27.6944 114.841 28.2627H91.716C92.3368 33.5335 96.1649 37.0476 101.494 37.0476C105.374 37.0476 108.788 35.0838 110.444 31.9835L114.013 33.7913C111.892 38.2352 107.183 40.9227 101.391 40.9227C93.2171 40.9235 87.3196 34.8774 87.3196 26.5059ZM110.392 24.4902C109.616 19.788 105.943 16.6355 100.977 16.6355C96.1657 16.6355 92.4927 19.788 91.7688 24.4902H110.392Z" fill="white"/>
<path d="M117.028 26.8156C117.028 18.6514 122.874 12.7598 130.53 12.7598C134.72 12.7598 138.186 14.5165 140.1 17.6691H140.617V7.73915L144.911 4.82338V39.8899H140.617V35.8591H140.1C138.186 39.063 134.823 40.9235 130.581 40.9235C122.925 40.9235 117.028 34.9806 117.028 26.8156ZM140.721 26.8156C140.721 21.0797 136.635 16.6355 131.047 16.6355C125.409 16.6355 121.322 21.0797 121.322 26.8156C121.322 32.655 125.46 37.0476 131.047 37.0476C136.634 37.0476 140.721 32.5523 140.721 26.8156Z" fill="white"/>
<path d="M149.736 13.7931H153.926V17.3072H154.394C155.584 14.93 158.48 13.2765 161.377 13.2765C162.483 13.2564 163.58 13.4856 164.585 13.9471V17.9263C163.351 17.4297 162.035 17.1668 160.705 17.1509C156.773 17.1509 154.031 20.665 154.031 25.8327V39.8887H149.738L149.736 13.7931Z" fill="white"/>
<path d="M164.877 33.2752C164.877 28.6761 168.809 25.2655 176.569 24.387L183.811 23.5082V22.4749C183.811 18.9611 181.276 16.6873 176.981 16.6873C173.05 16.6873 170.463 18.5989 170.515 21.8547H166.169C166.169 16.3255 170.463 12.8114 177.033 12.8114C183.81 12.8114 188.103 16.6355 188.103 22.5793V39.8908H183.81V36.0658H183.343C181.48 39.063 178.428 40.7168 174.238 40.7168C168.602 40.7165 164.877 37.7716 164.877 33.2752ZM183.811 29.503V27.1774L176.569 28.0043C171.241 28.675 169.171 30.7431 169.171 33.172C169.171 35.6524 171.344 37.1508 174.863 37.1508C180.19 37.1508 183.811 33.8954 183.811 29.503Z" fill="white"/>
</svg>
