<svg width="188" height="46" viewBox="0 0 188 46" fill="none" xmlns="http://www.w3.org/2000/svg">
<path d="M18.753 43.4771L21.9387 37.9704L26.5384 45.9236L32.3393 42.581L24.2784 28.6457H19.5978L12.952 40.1346L18.753 43.4771Z" fill="black"/>
<path d="M2.97626 29.8987L9.34692 29.8991L4.7464 37.8518L10.5471 41.1951L18.6072 27.2593L16.2669 23.2132L2.97602 23.2129L2.97626 29.8987Z" fill="black"/>
<path d="M6.86899 9.47182L10.054 14.9791L0.853757 14.9785L0.853516 21.6645L16.9745 21.664L19.3148 17.6179L12.6697 6.12865L6.86899 9.47182Z" fill="black"/>
<path d="M26.5384 2.62321L23.3527 8.13001L18.753 0.176819L12.952 3.5195L21.013 17.4548H25.6936L32.3393 5.96589L26.5384 2.62321Z" fill="black"/>
<path d="M42.315 16.2016L35.9443 16.2013L40.5449 8.24857L34.7441 4.90541L26.6841 18.841L29.0244 22.8872L42.3152 22.8875L42.315 16.2016Z" fill="black"/>
<path d="M38.4223 36.6285L35.2373 31.1214L44.4375 31.1219L44.4378 24.436L28.3168 24.4365L25.9765 28.4826L32.6216 39.9718L38.4223 36.6285Z" fill="black"/>
<path d="M60.2549 5.0002L64.5485 7.91597V17.2773H65.066C65.962 15.9223 67.1852 14.8144 68.6226 14.0558C70.0601 13.2972 71.6656 12.9123 73.2911 12.9366C79.9128 12.9366 84.1548 17.7424 84.1548 24.4087V40.0664H79.8608V24.4087C79.8608 19.9648 77.2225 16.8123 72.7223 16.8123C68.3253 16.8123 64.5495 20.1715 64.5495 24.8222V40.0667H60.2557L60.2549 5.0002Z" fill="black"/>
<path d="M87.2161 26.6827C87.2161 18.7244 93.01 12.9366 101.081 12.9366C109.047 12.9366 114.789 18.7244 114.789 26.734C114.789 27.251 114.789 27.8712 114.738 28.4395H91.6124C92.2333 33.7103 96.0613 37.2244 101.391 37.2244C105.271 37.2244 108.685 35.2606 110.34 32.1603L113.91 33.9681C111.789 38.412 107.08 41.0995 101.288 41.0995C93.1136 41.1004 87.2161 35.0542 87.2161 26.6827ZM110.288 24.6671C109.512 19.9648 105.839 16.8123 100.873 16.8123C96.0622 16.8123 92.3892 19.9648 91.6653 24.6671H110.288Z" fill="black"/>
<path d="M116.925 26.9924C116.925 18.8282 122.77 12.9366 130.426 12.9366C134.617 12.9366 138.083 14.6934 139.997 17.8459H140.514V7.91597L144.808 5.0002V40.0667H140.514V36.0359H139.997C138.083 39.2398 134.72 41.1003 130.478 41.1003C122.822 41.1003 116.925 35.1574 116.925 26.9924ZM140.618 26.9924C140.618 21.2565 136.531 16.8123 130.944 16.8123C125.305 16.8123 121.218 21.2565 121.218 26.9924C121.218 32.8318 125.357 37.2244 130.944 37.2244C136.531 37.2244 140.618 32.7292 140.618 26.9924Z" fill="black"/>
<path d="M149.633 13.97H153.823V17.4841H154.29C155.48 15.1068 158.376 13.4533 161.274 13.4533C162.38 13.4332 163.476 13.6624 164.481 14.1239V18.1031C163.247 17.6065 161.931 17.3436 160.601 17.3278C156.67 17.3278 153.928 20.8419 153.928 26.0095V40.0655H149.634L149.633 13.97Z" fill="black"/>
<path d="M164.774 33.452C164.774 28.8529 168.706 25.4424 176.465 24.5638L183.708 23.685V22.6517C183.708 19.1379 181.173 16.8642 176.878 16.8642C172.946 16.8642 170.359 18.7758 170.411 22.0315H166.066C166.066 16.5023 170.359 12.9882 176.929 12.9882C183.706 12.9882 188 16.8123 188 22.7561V40.0676H183.706V36.2427H183.239C181.377 39.2398 178.325 40.8936 174.134 40.8936C168.499 40.8933 164.774 37.9484 164.774 33.452ZM183.708 29.6799V27.3542L176.465 28.1811C171.137 28.8518 169.068 30.9199 169.068 33.3488C169.068 35.8292 171.24 37.3276 174.759 37.3276C180.086 37.3276 183.708 34.0722 183.708 29.6799Z" fill="black"/>
</svg>
